PathFileType	4	(X/Y/Z)	/Users/itak/Documents/Research/Walk-IL/dataset/trc/00011_00004.trc
DataRate	CameraRate	NumFrames	NumMarkers	Units	OrigDataRate	OrigDataStartFrame	OrigNumFrames
100.000000	100.000000	4	53	mm	100.000000	206	551
Frame#	Time	RPSI			LPSI			L3			STRN			T10			C7			CLAV			RBAK			LBAK			LSHO			LUPA			LAEL			LAOL			LWTS			LWPS			LFRA			LIFD			LHPS			LHTS			RSHO			RUPA			RAEL			RAOL			RWTS			RWPS			RFRA			RIFD			RHTS			RHPS			RBHD			LFHD			RFHD			LBHD			LHIP			RHIP			RASI			LASI			LKNE			LTHI			LANK			LTIP			LTOE			LMT1			LMT5			LHEE			RKNE			RTHI			RANK			RTIP			RTOE			RMT1			RMT5			RHEE			
		X1	Y1	Z1	X2	Y2	Z2	X3	Y3	Z3	X4	Y4	Z4	X5	Y5	Z5	X6	Y6	Z6	X7	Y7	Z7	X8	Y8	Z8	X9	Y9	Z9	X10	Y10	Z10	X11	Y11	Z11	X12	Y12	Z12	X13	Y13	Z13	X14	Y14	Z14	X15	Y15	Z15	X16	Y16	Z16	X17	Y17	Z17	X18	Y18	Z18	X19	Y19	Z19	X20	Y20	Z20	X21	Y21	Z21	X22	Y22	Z22	X23	Y23	Z23	X24	Y24	Z24	X25	Y25	Z25	X26	Y26	Z26	X27	Y27	Z27	X28	Y28	Z28	X29	Y29	Z29	X30	Y30	Z30	X31	Y31	Z31	X32	Y32	Z32	X33	Y33	Z33	X34	Y34	Z34	X35	Y35	Z35	X36	Y36	Z36	X37	Y37	Z37	X38	Y38	Z38	X39	Y39	Z39	X40	Y40	Z40	X41	Y41	Z41	X42	Y42	Z42	X43	Y43	Z43	X44	Y44	Z44	X45	Y45	Z45	X46	Y46	Z46	X47	Y47	Z47	X48	Y48	Z48	X49	Y49	Z49	X50	Y50	Z50	X51	Y51	Z51	X52	Y52	Z52	X53	Y53	Z53	

207	2.06	552.1715698242188	1034.649780273438	-241.2871246337891	520.7138061523438	1032.09619140625	-400.6336975097656	533.3062744140625	1107.144287109375	-333.3449401855469	771.7432861328125	1289.985473632812	-357.9229125976562	519.1412963867188	1251.11474609375	-349.1335754394531	578.2678833007812	1515.581787109375	-372.1169738769531	733.3385620117188	1417.21826171875	-363.5114135742188	520.7720947265625	1383.573608398438	-286.7730712890625	558.9823608398438	1472.450561523438	-469.1942138671875	663.0950927734375	1472.925170898438	-541.95068359375	632.3477783203125	1348.543334960938	-620.1292724609375	637.662841796875	1130.837036132812	-645.3554077148438	574.0740966796875	1115.128173828125	-562.1526489257812	774.4772338867188	914.8915405273438	-557.204345703125	711.280517578125	877.2254638671875	-607.53466796875	675.0654296875	1020.864501953125	-640.6007080078125	847.5350341796875	745.989013671875	-520.031494140625	766.7706909179688	800.8887939453125	-594.24658203125	821.7423095703125	830.208251953125	-559.7527465820312	656.271484375	1502.272338867188	-197.0281066894531	637.8375854492188	1433.751220703125	-123.5576019287109	576.3900146484375	1172.848266601562	-89.00923156738281	575.3167114257812	1139.785766601562	-183.4288024902344	711.5204467773438	915.9633178710938	-109.3481979370117	646.3720703125	900.2070922851562	-46.57205200195312	588.84765625	1096.048583984375	-69.36098480224609	742.2446899414062	730.0053100585938	-113.5745010375977	749.8573608398438	808.6084594726562	-90.06631469726562	692.5203857421875	802.6007690429688	-42.66189193725586	609.45263671875	1677.06689453125	-298.8246154785156	794.8429565429688	1722.134399414062	-390.9524841308594	779.626708984375	1719.107299804688	-293.2367248535156	623.15771484375	1684.4599609375	-442.0592651367188	595.3236694335938	934.3519897460938	-521.6299438476562	689.7114868164062	937.36767578125	-160.3023834228516	770.1683959960938	969.1982421875	-252.9689483642578	721.65380859375	979.6778564453125	-483.4875793457031	666.907470703125	488.0938415527344	-493.5361022949219	631.8068237304688	627.928466796875	-521.76220703125	444.2170104980469	39.55917739868164	-460.5171203613281	534.1328735351562	267.6924438476562	-490.9271545410156	662.37109375	32.4754524230957	-388.1897888183594	602.1762084960938	42.85791778564453	-374.7029724121094	569.3110961914062	30.80490493774414	-476.629638671875	374.28125	58.10858154296875	-409.8487548828125	836.6184692382812	535.29150390625	-199.9751739501953	752.3499755859375	786.6539306640625	-160.5603942871094	876.9112548828125	40.36126327514648	-200.8348388671875	852.9779052734375	410.6692810058594	-192.1058807373047	1102.607421875	89.92606353759766	-245.5752563476562	1038.195678710938	80.84794616699219	-274.5685424804688	1023.16162109375	65.8050537109375	-180.1814422607422	821.7457275390625	29.70803070068359	-244.9016418457031	
208	2.07	545.0380859375	1036.097778320312	-242.6815948486328	514.1790161132812	1033.33984375	-402.1161804199219	526.5580444335938	1108.486328125	-334.847412109375	765.102783203125	1291.3466796875	-358.6947631835938	512.5120239257812	1252.566040039062	-350.4944152832031	571.7265625	1517.0048828125	-373.221923828125	726.7361450195312	1418.592529296875	-364.4500732421875	514.1262817382812	1385.078247070312	-287.9689636230469	552.4302368164062	1473.851196289062	-470.3233032226562	656.6031494140625	1474.2216796875	-542.9794311523438	625.780029296875	1349.869506835938	-621.1687622070312	630.9698486328125	1132.270263671875	-646.5270385742188	567.2467041015625	1116.523193359375	-563.4638061523438	768.0697021484375	916.73828125	-557.9226684570312	705.1719970703125	878.876708984375	-608.4271240234375	668.5744018554688	1022.400024414062	-641.6557006835938	841.5617065429688	748.0827026367188	-520.447509765625	760.7998657226562	802.7442626953125	-594.9296875	815.6758422851562	832.3156127929688	-560.347412109375	649.5950317382812	1503.668090820312	-198.0457763671875	630.909423828125	1435.216186523438	-124.6386337280273	568.2017822265625	1174.517333984375	-90.57553100585938	567.0468139648438	1141.69287109375	-185.0732116699219	700.3008422851562	916.0718994140625	-110.9876708984375	634.9078979492188	901.07470703125	-48.26422882080078	579.8978881835938	1097.643676757812	-71.01576995849609	728.5569458007812	729.7677612304688	-115.7291946411133	737.1820068359375	808.1936645507812	-91.95046997070312	679.7138671875	802.7846069335938	-44.63263320922852	603.0086669921875	1678.70458984375	-300.0563049316406	788.4364013671875	1723.339477539062	-392.2899780273438	773.2434692382812	1720.465942382812	-294.5789184570312	616.6807250976562	1685.84423828125	-443.3025512695312	589.2706909179688	935.3551635742188	-522.6843872070312	682.4029541015625	938.9500732421875	-161.0441284179688	763.1489868164062	970.6912841796875	-253.4591522216797	715.4331665039062	980.8980102539062	-484.1694030761719	661.611572265625	489.4204406738281	-492.879150390625	626.316650390625	628.9417114257812	-521.5498046875	443.9860534667969	38.88664245605469	-460.2955017089844	531.304443359375	267.879150390625	-490.3799743652344	662.3196411132812	32.48973846435547	-388.1637878417969	602.096923828125	42.74652862548828	-374.5818786621094	569.219482421875	30.86543464660645	-476.5365600585938	373.8713684082031	56.71802139282227	-409.5652770996094	831.177001953125	536.8043212890625	-200.3025970458984	745.4631958007812	788.3426513671875	-161.2290802001953	862.5205688476562	41.07702255249023	-200.585693359375	845.8004150390625	411.7904968261719	-192.4709014892578	1088.732299804688	87.44290161132812	-245.494384765625	1024.254638671875	79.22389221191406	-274.5152282714844	1009.178771972656	64.21327972412109	-180.0330200195312	807.2710571289062	31.25236892700195	-244.5947570800781	
209	2.08	538.0040283203125	1037.620361328125	-244.0286865234375	507.7838134765625	1034.654541015625	-403.5390014648438	519.8922119140625	1109.883178710938	-336.3224487304688	758.4736938476562	1292.770751953125	-359.3646850585938	505.9017944335938	1254.046997070312	-351.8302612304688	565.191162109375	1518.475708007812	-374.2203063964844	720.1605834960938	1420.0634765625	-365.3168334960938	507.5225524902344	1386.594482421875	-289.1003112792969	545.89697265625	1475.325317382812	-471.3546447753906	650.1119384765625	1475.616088867188	-543.9185180664062	619.16748046875	1351.291015625	-622.10693359375	624.1419677734375	1133.80029296875	-647.56689453125	560.3549194335938	1118.04248046875	-564.5910034179688	761.5470581054688	918.6514892578125	-558.6708374023438	698.8673095703125	880.6034545898438	-609.2627563476562	661.9054565429688	1024.021728515625	-642.6170654296875	835.4888305664062	750.2208251953125	-521.0048217773438	754.6404418945312	804.6458740234375	-595.6300659179688	809.4462890625	834.4481201171875	-561.032958984375	642.8868408203125	1505.089599609375	-198.9602966308594	623.9729614257812	1436.69287109375	-125.6236724853516	560.205810546875	1176.175170898438	-91.99686431884766	558.9351806640625	1143.589233398438	-186.5685882568359	689.2860717773438	916.2238159179688	-112.5511093139648	623.693115234375	902.004150390625	-49.83009338378906	571.1624755859375	1099.250854492188	-72.54349517822266	715.044677734375	729.5905151367188	-117.792121887207	724.6892700195312	807.8331298828125	-93.78691101074219	667.16748046875	803.0517578125	-46.47549819946289	596.5882568359375	1680.424926757812	-301.1589050292969	782.0042724609375	1724.604736328125	-393.5359191894531	766.8850708007812	1721.906127929688	-295.8570251464844	610.1815185546875	1687.296997070312	-444.4291687011719	583.3319702148438	936.4169921875	-523.65869140625	675.1893310546875	940.660888671875	-161.6986389160156	756.2363891601562	972.2938232421875	-253.8535766601562	709.3214111328125	982.1787109375	-484.7358093261719	656.4124145507812	490.8190307617188	-492.1601257324219	620.976318359375	630.0194702148438	-521.2734375	443.8026428222656	38.32499313354492	-460.1235961914062	528.4161376953125	268.2213134765625	-489.8565979003906	662.2731323242188	32.49964141845703	-388.1343994140625	602.0325927734375	42.66268539428711	-374.4820251464844	569.141357421875	30.92671775817871	-476.4447326660156	373.5232238769531	55.48888778686523	-409.3328247070312	825.862060546875	538.3851928710938	-200.5948181152344	738.7459106445312	790.160888671875	-161.8462829589844	846.757568359375	41.83308792114258	-200.2260589599609	838.4900512695312	412.8846435546875	-192.8274078369141	1073.541137695312	84.35697937011719	-245.5382690429688	1008.943054199219	77.1611328125	-274.5238037109375	993.8593139648438	62.33687973022461	-179.8954467773438	791.386474609375	32.93548202514648	-244.1112823486328	
210	2.09	531.1012573242188	1039.199340820312	-245.2962341308594	501.5216369628906	1036.021728515625	-404.8695068359375	513.3038940429688	1111.318725585938	-337.7283935546875	751.8705444335938	1294.251220703125	-359.9439392089844	499.3038940429688	1255.537231445312	-353.1210632324219	558.6505126953125	1519.97412109375	-375.1231384277344	713.6076049804688	1421.618408203125	-366.1116027832031	500.9384460449219	1388.10693359375	-290.1668395996094	539.3831176757812	1476.8505859375	-472.2962036132812	643.6268920898438	1477.098388671875	-544.7694702148438	612.5322875976562	1352.803466796875	-622.9564819335938	617.1883544921875	1135.41796875	-648.4791259765625	553.4125366210938	1119.68310546875	-565.5416870117188	754.9140014648438	920.615478515625	-559.4522094726562	692.3504638671875	882.3898315429688	-610.0365600585938	655.0661010742188	1025.71630859375	-643.4871826171875	829.302978515625	752.3925170898438	-521.7034301757812	748.2742919921875	806.573486328125	-596.3413696289062	803.0321044921875	836.5616455078125	-561.7999877929688	636.1420288085938	1506.533569335938	-199.7799224853516	617.0205078125	1438.177856445312	-126.5193862915039	552.3826293945312	1177.818725585938	-93.29983520507812	551.0076904296875	1145.466186523438	-187.9430694580078	678.5220947265625	916.43408203125	-114.0168609619141	612.7506103515625	902.9990844726562	-51.27188873291016	562.62646484375	1100.869506835938	-73.96596527099609	701.7695922851562	729.4853515625	-119.7286071777344	712.4232177734375	807.539306640625	-95.5439453125	654.898193359375	803.4119873046875	-48.18289184570312	590.18505859375	1682.205688476562	-302.1352844238281	775.5485229492188	1725.910278320312	-394.6888732910156	760.5451049804688	1723.402465820312	-297.0618896484375	603.658203125	1688.803100585938	-445.43994140625	577.4797973632812	937.5343017578125	-524.5392456054688	668.0894165039062	942.4642333984375	-162.2761840820312	749.4324951171875	973.98779296875	-254.1750946044922	703.2872314453125	983.5054321289062	-485.1903686523438	651.3598022460938	492.2787780761719	-491.4232482910156	615.79931640625	631.1505126953125	-520.9702758789062	443.6626586914062	37.86927795410156	-460.0029296875	525.5228271484375	268.691162109375	-489.3787231445312	662.2322387695312	32.50405502319336	-388.103515625	601.9813842773438	42.60700988769531	-374.4050903320312	569.07470703125	30.98858642578125	-476.3582763671875	373.239501953125	54.42512512207031	-409.1565246582031	820.5555419921875	539.9979248046875	-200.8743591308594	732.1707763671875	792.0502319335938	-162.4172210693359	829.7761840820312	42.66567611694336	-199.7660217285156	830.9736328125	413.9345092773438	-193.1571044921875	1057.135375976562	80.88103485107422	-245.6448516845703	992.3843383789062	74.83116912841797	-274.5513610839844	977.3150024414062	60.3022346496582	-179.7410430908203	774.2467651367188	34.77756118774414	-243.4862976074219	
